<?xml version="1.0" standalone="no"?>
<!DOCTYPE svg PUBLIC "-//W3C//DTD SVG 20010904//EN"
 "http://www.w3.org/TR/2001/REC-SVG-20010904/DTD/svg10.dtd">
<svg version="1.0" xmlns="http://www.w3.org/2000/svg"
 width="155.000000pt" height="155.000000pt" viewBox="0 0 155.000000 155.000000"
 preserveAspectRatio="xMidYMid meet">

<g transform="translate(0.000000,155.000000) scale(0.100000,-0.100000)"
fill="#000000" stroke="none">
<path d="M732 1428 l-33 -9 46 -44 c25 -25 50 -45 56 -45 5 0 32 -16 60 -35
28 -19 56 -35 61 -35 6 0 4 -7 -3 -17 -13 -15 -12 -15 8 -4 12 6 39 31 60 56
20 24 38 43 40 41 2 -2 -7 -32 -21 -67 -19 -48 -21 -58 -8 -41 12 15 31 24 57
26 22 2 41 4 43 5 1 1 -3 11 -9 24 -11 20 -11 21 4 9 9 -8 30 -41 47 -75 16
-33 30 -54 30 -46 0 29 -61 118 -114 167 -34 31 -78 59 -114 72 -63 24 -159
33 -210 18z"/>
<path d="M1181 1094 c0 -11 3 -14 6 -6 3 7 2 16 -1 19 -3 4 -6 -2 -5 -13z"/>
<path d="M544 1031 c-66 -41 -94 -107 -74 -180 11 -43 64 -97 105 -107 27 -7
32 -18 14 -30 -19 -11 -49 -87 -49 -125 0 -35 -24 -69 -47 -69 -21 0 -92 92
-112 144 l-20 51 0 -137 c-1 -151 15 -219 61 -259 12 -11 16 -18 8 -14 -8 4
-1 -6 15 -20 17 -15 23 -24 15 -20 -8 4 1 -8 20 -26 l34 -33 7 25 c4 13 7 19
8 13 1 -5 8 -19 16 -30 13 -17 13 -15 0 18 -8 21 -15 49 -15 63 0 14 -5 25
-11 25 -5 0 -8 4 -5 8 3 5 6 49 7 100 2 119 15 134 158 181 57 19 66 19 81 6
14 -13 18 -13 31 0 13 13 21 13 69 -1 30 -9 76 -27 103 -40 l47 -24 0 37 c0
39 -30 115 -49 127 -18 12 -13 23 14 30 37 9 92 63 105 102 23 70 -12 154 -81
189 -60 31 -165 10 -206 -42 -10 -12 -19 -9 -63 21 -43 30 -61 36 -104 36 -32
0 -62 -7 -82 -19z m118 -98 c37 -33 10 -93 -42 -93 -33 0 -52 21 -52 57 0 47
57 70 94 36z m316 -16 c12 -24 11 -31 -2 -53 -29 -43 -106 -22 -106 29 0 59
83 77 108 24z m-230 -195 c18 -35 2 -43 -34 -16 -27 21 -32 30 -23 40 13 16
43 4 57 -24z m111 24 c9 -11 4 -19 -24 -40 -30 -23 -36 -25 -41 -11 -4 10 3
26 16 41 27 28 33 29 49 10z m-362 -503 c-3 -10 -5 -2 -5 17 0 19 2 27 5 18 2
-10 2 -26 0 -35z"/>
<path d="M270 991 c-22 -43 -7 -106 36 -146 47 -43 54 -35 54 64 0 72 -3 90
-16 95 -31 12 -63 6 -74 -13z"/>
<path d="M1202 998 c-7 -7 -12 -44 -12 -95 0 -88 6 -97 44 -68 49 37 70 109
46 156 -12 22 -59 26 -78 7z"/>
<path d="M1373 945 c0 -22 2 -30 4 -17 2 12 2 30 0 40 -3 9 -5 -1 -4 -23z"/>
<path d="M1356 877 c-10 -42 -72 -104 -122 -123 -24 -9 -44 -20 -44 -25 0 -32
-49 -126 -86 -169 -25 -27 -42 -50 -37 -50 5 0 15 6 22 13 11 10 13 5 8 -30
-3 -24 -1 -43 4 -43 6 0 7 -21 4 -51 -5 -44 -4 -51 10 -45 13 5 14 2 4 -17
-10 -20 -10 -21 5 -6 9 8 25 37 36 65 10 27 19 42 19 34 1 -29 -48 -120 -90
-165 -23 -25 -40 -48 -37 -51 3 -3 29 21 57 53 77 87 91 133 91 311 l0 147 58
31 c41 22 65 44 86 77 15 25 26 52 24 59 -3 7 -8 0 -12 -15z"/>
<path d="M720 553 c-145 -47 -153 -58 -44 -68 124 -12 304 7 268 27 -12 7
-172 58 -176 57 -2 -1 -23 -8 -48 -16z"/>
<path d="M573 445 c7 -43 50 -102 90 -125 34 -19 61 -5 65 34 3 24 7 26 48 26
39 0 44 -2 44 -23 0 -28 17 -47 44 -47 43 0 135 135 110 160 -5 5 -34 2 -64
-6 -30 -8 -86 -14 -125 -14 -64 1 -87 4 -184 26 l-34 7 6 -38z"/>
<path d="M1027 304 c-4 -4 -7 -17 -7 -28 0 -12 -9 -39 -19 -62 -15 -33 -31
-47 -92 -79 -40 -21 -92 -44 -114 -51 -33 -11 -36 -13 -14 -13 15 -1 68 20
118 45 89 44 93 47 121 106 18 37 26 66 22 75 -5 7 -11 10 -15 7z"/>
<path d="M560 186 c0 -2 8 -10 18 -17 15 -13 16 -12 3 4 -13 16 -21 21 -21 13z"/>
<path d="M600 155 c0 -7 141 -77 146 -73 2 2 -30 21 -71 41 -41 20 -75 35 -75
32z"/>
</g>
</svg>
