<?xml version="1.0" standalone="no"?>
<!DOCTYPE svg PUBLIC "-//W3C//DTD SVG 20010904//EN"
 "http://www.w3.org/TR/2001/REC-SVG-20010904/DTD/svg10.dtd">
<svg version="1.0" xmlns="http://www.w3.org/2000/svg"
 width="32.000000pt" height="32.000000pt" viewBox="0 0 32.000000 32.000000"
 preserveAspectRatio="xMidYMid meet">

<g transform="translate(0.000000,32.000000) scale(0.100000,-0.100000)"
fill="#000000" stroke="none">
<path d="M0 160 l0 -160 160 0 160 0 0 160 0 160 -160 0 -160 0 0 -160z m178
58 c10 -29 10 -31 -3 -14 -7 10 -18 15 -23 12 -6 -3 -8 2 -5 14 8 29 17 25 31
-12z m-68 -53 c30 -30 52 -55 49 -55 -2 0 -29 25 -59 55 -30 30 -52 55 -49 55
2 0 29 -25 59 -55z m-59 -2 c8 -9 9 -14 2 -10 -6 4 -13 2 -15 -5 -3 -7 -7 -2
-10 10 -7 26 4 29 23 5z m238 -13 c-12 -34 -24 -42 -14 -9 6 16 4 20 -6 13
-12 -6 -12 -5 0 9 21 27 31 20 20 -13z m-197 -22 c-18 -18 -15 -26 16 -31 19
-3 15 -4 -14 -6 -30 -1 -44 4 -48 15 -9 25 -6 31 5 11 10 -18 12 -18 26 2 8
12 17 21 21 21 3 0 1 -5 -6 -12z m178 -30 c0 -4 -17 -8 -37 -7 -33 1 -35 2
-13 8 33 10 50 9 50 -1z"/>
</g>
</svg>
